<svg xmlns="http://www.w3.org/2000/svg" width="23" height="21" viewBox="0 0 23 21">
  <defs>
    <style>
      .cls-1 {
        fill: #fff;
        fill-rule: evenodd;
      }
    </style>
  </defs>
  <path id="Icon" class="cls-1" d="M1086.75,2731a10.348,10.348,0,0,0-8.39,4.26,4.954,4.954,0,0,1,1.13,1.01,8.742,8.742,0,0,1,6.21-3.74l1.05,1.74,1.05-1.74a8.645,8.645,0,0,1,7.63,7.44l-1.78,1.02,1.78,1.03a8.514,8.514,0,0,1-4.01,6.17,2.537,2.537,0,0,1,.17,1.62A9.98,9.98,0,0,0,1097,2741,10.136,10.136,0,0,0,1086.75,2731Zm2.62,16.46c-2.37-1.85-3.03-.94-4.1.11-0.75.73-2.64-.8-4.28-2.39s-3.19-3.45-2.45-4.18c1.08-1.04,2.01-1.69.11-3.99s-3.16-.54-4.2.48c-1.2,1.17-.07,5.52,4.35,9.83s8.88,5.41,10.08,4.24C1089.91,2750.55,1091.73,2749.31,1089.37,2747.46Zm-7.2-4.9c0-2.05,2.46-2.41,2.46-3.21a0.555,0.555,0,0,0-.61-0.55,1.109,1.109,0,0,0-.85.59l-1.03-.68a2.18,2.18,0,0,1,2-1.19,1.756,1.756,0,0,1,1.95,1.7c0,1.73-2.3,2.06-2.34,2.77h2.42v1.17h-3.94A3.293,3.293,0,0,1,1082.17,2742.56Zm4.58-1.57,2.2-3.38h1.7v3.08h0.68v1.12h-0.68v1.35h-1.37v-1.35h-2.53v-0.82h0Zm2.53-.3v-1.24a5.553,5.553,0,0,1,.04-0.62h-0.01a2.855,2.855,0,0,1-.28.57l-0.86,1.27v0.02h1.11Z" transform="translate(-1074 -2731)"/>
</svg>
