<svg xmlns="http://www.w3.org/2000/svg" width="23" height="20" viewBox="0 0 23 20">
  <defs>
    <style>
      .cls-1 {
        fill: #fff;
        fill-rule: evenodd;
      }
    </style>
  </defs>
  <path id="Icon" class="cls-1" d="M1077.12,2681.49a0.475,0.475,0,0,0,.48.51c0.63,0,5.8-.01,5.8-0.01l0.01-4.66a0.668,0.668,0,0,1,.68-0.77h2.41a0.734,0.734,0,0,1,.84.77l-0.01,4.65h5.68a0.587,0.587,0,0,0,.61-0.63v-8.6l-8-6.98-8.5,6.98v8.74Zm-3.13-9.39s0.72,1.31,2.3,0l9.4-7.8,8.81,7.75c1.83,1.29,2.51,0,2.51,0L1085.69,2662Zm20.3-7.82h-2.27l0.01,2.7,2.26,1.88v-4.58Z" transform="translate(-1074 -2662)"/>
</svg>
